<svg xmlns="http://www.w3.org/2000/svg" viewBox="0 0 261.64 78.88"><defs><style>.cls-1{fill:#1c1c1c;}.cls-2,.cls-4{fill:none;}.cls-2{stroke:#fff;stroke-miterlimit:10;stroke-width:2px;}.cls-3{isolation:isolate;}.cls-4{stroke:#1c1c1c;stroke-width:3px;}.cls-5{fill:#fff;}.cls-6{fill:#d03333;}</style></defs><g id="Gears"><g id="Layer_5_copy_4_Image" data-name="Layer 5 copy 4 Image"><path class="cls-1" d="M250.8,170.65c0-2.4,0-5,0-7.68,0-.65.25-.85.88-1a5.88,5.88,0,0,0,4.53-4.08,5.65,5.65,0,0,0-1.33-5.86,5.92,5.92,0,0,0-9.7,1.71,65.37,65.37,0,0,0-7.56-.56,6,6,0,0,1-5-2.11c-.68-.74-.86-1.28-.32-2.14s.84-2.41,1.67-2.89,2.18-.06,3.23.22c2,.54,3.29-.57,4.13-2,.47-.79.16-2.05.19-3.1,0-.19-.07-.39-.06-.59,0-2.32-.42-2,1.85-2.76,2.49-.86,2.48-.89,4.17,1.11a3.16,3.16,0,0,1,.61.72c.85,2,2.63,1.85,4.24,1.67.63-.07,1.19-.94,1.74-1.49a10.77,10.77,0,0,0,1.41-1.61c.7-1,1.47-1.07,2.48-.44a15.94,15.94,0,0,0,2.05,1c.77.34.85,1,.77,1.69a22.22,22.22,0,0,1-.3,2.84,3.23,3.23,0,0,0,1.46,3.46,2.39,2.39,0,0,0,1.4.39c1.37,0,2.74-.1,4.11-.11a1.08,1.08,0,0,1,.83.39,27.66,27.66,0,0,1,1.16,3.39,1.49,1.49,0,0,1-.32,1.23,36.6,36.6,0,0,1-3.08,2.61,3.27,3.27,0,0,0-.22,4.18l3.58,3.32c-.53,1.22-1,2.48-1.61,3.66a1.51,1.51,0,0,1-1.16.59,36.19,36.19,0,0,1-3.74-.39c-1.32-.18-3.5,1.74-3.41,3.07s.18,2.5.33,3.74a1.39,1.39,0,0,1-1.08,1.68c-.6.2-1.2.43-1.79.66-1,.41-1.82.44-2.5-.71a18.49,18.49,0,0,0-2.27-2.76A9.84,9.84,0,0,0,250.8,170.65Z" transform="translate(-7.82 -121.52)"/></g><g id="Layer_5_copy_5_Image" data-name="Layer 5 copy 5 Image"><path class="cls-1" d="M231.84,153.12H201.12a13.87,13.87,0,0,0,.81-1.33c.81-1.74,2.08-3.44.63-5.44a2.28,2.28,0,0,0-.92-.83,27.86,27.86,0,0,0-3.09-.88c-1.22-.29-2-.8-1.73-2.25.13-.82-.06-1.68,0-2.51a1.24,1.24,0,0,1,.54-.91,23,23,0,0,1,3.3-1.23,3.33,3.33,0,0,0,2-4.62c-.45-.8-.86-1.61-1.32-2.4-.57-1-.69-1.76.42-2.51.67-.45,1.14-1.22,1.79-1.73a1.43,1.43,0,0,1,1.21-.22c1.21.49,2.35,1.13,3.53,1.69s3.46-.43,3.85-1.49a26.18,26.18,0,0,0,.81-2.56c.59-2.2.57-2.2,2.87-2.23a9.52,9.52,0,0,0,1.3-.12c1.16-.18,1.63.44,1.9,1.46s.68,2.19,1,3.27,2.89,2.16,3.9,1.64c1.22-.64,2.45-1.27,3.64-2,.63-.38,1-.37,1.48.27A11.17,11.17,0,0,0,231,128a1.46,1.46,0,0,1,.36,2c-.57,1.18-1.11,2.38-1.64,3.57a3.06,3.06,0,0,0,1.83,3.67c1.32.35,2.63.8,3.91,1.27a1,1,0,0,1,.55.73,21.89,21.89,0,0,1-.07,3.34,1.77,1.77,0,0,1-.82,1.21,31.57,31.57,0,0,1-3.32,1.27A3.37,3.37,0,0,0,230,149.5C230.65,150.69,231.24,151.91,231.84,153.12Zm-9.56-11.91a5.67,5.67,0,0,0-5.83-5.77,5.93,5.93,0,0,0-.47,11.85C219.76,147.29,222.36,144.71,222.28,141.21Z" transform="translate(-7.82 -121.52)"/></g><g id="Layer_5_copy_6_Image" data-name="Layer 5 copy 6 Image"><path class="cls-1" d="M199,153.12H187c-2.32-2.68-5.91-2.68-8.88,0h-14.4c-.12-.27-.41-.58-.34-.79.39-1.25.83-2.49,1.34-3.69a1.13,1.13,0,0,1,.87-.45c1.31,0,2.62.05,3.93.06,1.11,0,2.94-1.72,2.9-2.8a17.29,17.29,0,0,0-.29-2.69c-.45-2.34-.47-2.33,1.68-3.4a12.6,12.6,0,0,0,1.13-.64c.95-.66,1.6-.25,2.24.5s1.54,1.7,2.33,2.52c.94,1,3.64.71,4.43-.39s1.61-2.24,2.49-3.3a1.16,1.16,0,0,1,1-.23c.87.25,1.69.72,2.57.93a1.53,1.53,0,0,1,1.32,1.79c0,1.35,0,2.71,0,4.06A3.32,3.32,0,0,0,194,147c1-.11,2-.23,3-.39,2-.33,2-.34,2.84,1.4l.36.75c.89,1.9.88,1.89-.56,3.46A11.07,11.07,0,0,0,199,153.12Z" transform="translate(-7.82 -121.52)"/></g></g><g id="Upper_Line" data-name="Upper Line"><line class="cls-2" x1="27.06" y1="44.38" x2="48.31" y2="44.38"/><line class="cls-2" x1="27.48" y1="54.16" x2="48.31" y2="54.16"/><polyline class="cls-2" points="27.06 35.24 40.69 35.24 52.84 22.2 120.27 22.2"/><polyline class="cls-2" points="26.86 25.43 40.49 25.43 52.64 12.39 120.06 12.39"/></g><g id="Lower_Line" data-name="Lower Line"><polyline class="cls-2" points="17.74 54.15 1 54.15 1 72.42 213.42 72.16"/></g><g id="Rectangle_3" data-name="Rectangle 3" class="cls-3"><g id="Rectangle_3-2" data-name="Rectangle 3"><rect class="cls-1" x="10.25" y="19.37" width="21.23" height="42.98" rx="0.48"/><rect class="cls-4" x="10.25" y="19.37" width="21.23" height="42.98" rx="0.48"/></g></g><g id="CLUB"><path class="cls-5" d="M221.24,197.3v-6.77c0-1.94,1-3.09,2.91-3.09s2.92,1.15,2.92,3.09v1.34H225.2v-1.46c0-.83-.4-1.17-1-1.17s-1,.34-1,1.17v7c0,.83.39,1.15,1,1.15s1-.32,1-1.15v-1.93h1.87v1.78c0,1.95-1,3.1-2.92,3.1S221.24,199.25,221.24,197.3Z" transform="translate(-7.82 -121.52)"/><path class="cls-5" d="M228.25,187.62h2v10.8h3.25v1.8h-5.24Z" transform="translate(-7.82 -121.52)"/><path class="cls-5" d="M234.38,197.23v-9.61h2v9.76c0,.9.37,1.22,1,1.22s1-.32,1-1.22v-9.76h1.91v9.61c0,2-1,3.17-2.95,3.17S234.38,199.25,234.38,197.23Z" transform="translate(-7.82 -121.52)"/><path class="cls-5" d="M241.68,187.62h3c2.05,0,2.94.95,2.94,2.89V191c0,1.3-.4,2.11-1.28,2.47v0c1.06.36,1.47,1.3,1.47,2.63v1.08a2.67,2.67,0,0,1-3,3h-3.12Zm2.76,5.13c.74,0,1.19-.33,1.19-1.33v-.71c0-.9-.31-1.29-1-1.29h-1v3.33Zm.36,5.67c.66,0,1-.31,1-1.24v-1.1c0-1.17-.37-1.53-1.28-1.53h-.88v3.87Z" transform="translate(-7.82 -121.52)"/></g><g id="Robotics"><path class="cls-6" d="M61.72,169.85h4.82a5,5,0,1,0,0-9.93H60.21v24.42H56.13V155.76H66.54a8.85,8.85,0,0,1,9.31,9.11,8.59,8.59,0,0,1-7.39,8.73l9,10.74H72.13L61.72,171.81Z" transform="translate(-7.82 -121.52)"/><path class="cls-6" d="M81.12,159.72a14.44,14.44,0,0,1,20.62,0,14.7,14.7,0,0,1,0,20.66,14.44,14.44,0,0,1-20.62,0,14.68,14.68,0,0,1,0-20.66Zm17.68,2.94a10.52,10.52,0,0,0-7.39-3.1,10.24,10.24,0,0,0-7.31,3.1,10.45,10.45,0,0,0,0,14.78,10.24,10.24,0,0,0,7.31,3.1,10.51,10.51,0,0,0,7.39-17.88Z" transform="translate(-7.82 -121.52)"/><path class="cls-6" d="M120.44,155.8a7.13,7.13,0,0,1,6.94,4.7c1.14,2.81.78,6.08-2.08,8.12a7.4,7.4,0,0,1,4.45,7.11c0,4.28-2.82,8.61-8.29,8.61h-12.9V155.8Zm-7.8,11.35h7.72c4.49,0,4.57-7.43.08-7.43h-7.8Zm0,13.19h8.82c2.78,0,4.17-2.33,4.17-4.57s-1.39-4.53-4.17-4.53h-8.82Z" transform="translate(-7.82 -121.52)"/><path class="cls-6" d="M135,159.72a14.44,14.44,0,0,1,20.62,0,14.7,14.7,0,0,1,0,20.66,14.44,14.44,0,0,1-20.62,0,14.68,14.68,0,0,1,0-20.66Zm17.68,2.94a10.52,10.52,0,0,0-7.39-3.1,10.24,10.24,0,0,0-7.31,3.1,10.45,10.45,0,0,0,0,14.78,10.24,10.24,0,0,0,7.31,3.1,10.51,10.51,0,0,0,7.39-17.88Z" transform="translate(-7.82 -121.52)"/><path class="cls-6" d="M168.79,184.46V159.6h-8.66v-3.84h21.4v3.84h-8.62v24.86Z" transform="translate(-7.82 -121.52)"/><path class="cls-6" d="M197.7,159.88h-5.31v20.34h5.31v4.12H183v-4.12h5.3V159.88H183V155.8H197.7Z" transform="translate(-7.82 -121.52)"/><path class="cls-6" d="M201.82,159.88a13.78,13.78,0,0,1,9.88-4.24A13.37,13.37,0,0,1,225,166.17h-4.08a9.3,9.3,0,0,0-9.23-6.45,9.74,9.74,0,0,0-7,3.06,10.56,10.56,0,0,0,0,14.62,9.83,9.83,0,0,0,16.49-3.76h4.05c-1.64,6.5-6.86,10.91-13.52,10.91a13.63,13.63,0,0,1-9.88-4.25,14.81,14.81,0,0,1,0-20.42Z" transform="translate(-7.82 -121.52)"/><path class="cls-6" d="M242.86,163.15c-.57-2.57-3.35-3.67-5.84-3.63a6.82,6.82,0,0,0-5.19,2.16,3.75,3.75,0,0,0-.69,2.65c.2,2.94,3.43,3.31,6.49,3.6,3.92.49,8.78,1.51,9.88,6.08a10.41,10.41,0,0,1,.21,1.88c0,5.51-5.48,8.7-10.62,8.7-4.41,0-9.76-2.62-10.29-7.72l0-.78,4.16-.08,0,.61v-.16c.29,2.66,3.52,4,6.17,4,3.06,0,6.41-1.71,6.41-4.65a4.65,4.65,0,0,0-.12-1c-.49-2.16-3.43-2.53-6.29-2.82-4.45-.45-9.68-1.43-10.13-7.39v0a7.72,7.72,0,0,1,1.56-5.43c1.91-2.49,5.34-3.8,8.65-3.8,4.41,0,9,2.29,9.72,7.52Z" transform="translate(-7.82 -121.52)"/></g><g id="RPI"><path class="cls-5" d="M127.88,127.5h5.87c4.1,0,5.86,1.91,5.86,5.8v1.55c0,2.59-.83,4.24-2.59,5v.08c2,.61,2.63,2.48,2.63,5.32v4.43a7.38,7.38,0,0,0,.43,3.06h-4a7.68,7.68,0,0,1-.36-3.1V145c0-2.34-.69-3.1-2.48-3.1h-1.37v10.8h-4Zm5.4,10.8c1.47,0,2.37-.65,2.37-2.66v-1.95c0-1.79-.61-2.59-2-2.59h-1.8v7.2Z" transform="translate(-7.82 -121.52)"/><path class="cls-5" d="M142.39,127.5h5.83c4,0,5.9,2.2,5.9,6.23v2.48c0,4-1.94,6.23-5.9,6.23h-1.88V152.7h-4Zm5.83,11.34c1.26,0,1.94-.57,1.94-2.37v-3c0-1.8-.68-2.38-1.94-2.38h-1.88v7.74Z" transform="translate(-7.82 -121.52)"/><path class="cls-5" d="M156.28,127.5h4v25.2h-4Z" transform="translate(-7.82 -121.52)"/></g></svg>